<svg xmlns="http://www.w3.org/2000/svg" width="793" height="1385" viewBox="0 0 793 1385" version="1.1">
	<path d="M 559.624 15.250 C 553.423 20.215, 525.652 49.082, 522.346 54 C 521.422 55.375, 518.153 59.806, 515.083 63.846 C 512.012 67.886, 508.719 72.386, 507.764 73.846 C 506.810 75.306, 505.458 76.950, 504.760 77.500 C 504.062 78.050, 501.693 81.200, 499.495 84.500 C 495.484 90.524, 487.434 100.465, 477.764 111.337 C 474.909 114.548, 471.712 118.598, 470.660 120.337 C 467.464 125.625, 456.478 139.226, 451.547 144 C 448.991 146.475, 445.910 150.492, 444.700 152.926 C 442.808 156.733, 431.504 170.495, 424.274 177.795 C 423.023 179.058, 422 180.690, 422 181.423 C 422 182.156, 421.292 183.343, 420.427 184.061 C 419.562 184.779, 417.921 187.196, 416.782 189.433 C 415.642 191.670, 412.120 196.200, 408.955 199.500 C 397.534 211.409, 393.287 216.476, 391.451 220.382 C 389.353 224.842, 385.877 229.392, 377.685 238.399 C 373.733 242.744, 369.843 247.244, 369.041 248.399 C 368.238 249.555, 366.977 251.119, 366.237 251.875 C 365.498 252.631, 363.965 255.224, 362.831 257.637 C 361.697 260.050, 359.470 262.791, 357.883 263.728 C 356.296 264.666, 354.747 266.222, 354.441 267.186 C 354.135 268.151, 352.560 270.189, 350.942 271.717 C 349.324 273.244, 347.997 274.945, 347.994 275.497 C 347.990 276.049, 347.385 277.655, 346.648 279.067 C 345.912 280.478, 345.024 282.728, 344.676 284.067 C 344.328 285.405, 339.312 290.775, 333.529 296 C 327.746 301.225, 323.011 306.007, 323.007 306.628 C 323.003 307.248, 322.404 308.250, 321.675 308.855 C 320.946 309.459, 319.050 312.524, 317.461 315.665 C 315.872 318.806, 312.722 323.225, 310.462 325.486 C 308.202 327.746, 305.501 331.036, 304.461 332.798 C 303.420 334.559, 302.222 336, 301.798 336 C 301.374 336, 300.369 337.575, 299.564 339.500 C 298.760 341.425, 297.667 343, 297.136 343 C 295.413 343, 290.623 348.814, 287.473 354.728 C 285.604 358.238, 283.821 360.405, 282.923 360.257 C 282.099 360.122, 280.575 361.649, 279.473 363.714 C 278.388 365.748, 275.916 369.457, 273.980 371.956 C 272.044 374.455, 269.658 377.758, 268.678 379.295 C 267.697 380.832, 265.832 382.493, 264.533 382.987 C 261.680 384.072, 260.505 387.207, 261.945 389.896 C 263.585 392.962, 263.214 394, 260.475 394 C 258.485 394, 257.826 394.619, 257.366 396.919 C 256.963 398.933, 256.020 400.029, 254.324 400.455 C 252.972 400.794, 251.145 402.327, 250.265 403.861 C 249.385 405.395, 247.165 407.633, 245.332 408.834 C 243.500 410.035, 242 411.689, 242 412.509 C 242 414.712, 241.741 415.283, 239.649 417.689 C 238.602 418.893, 237.240 420.741, 236.623 421.796 C 233.287 427.495, 229.559 432.346, 225.048 436.857 C 222.271 439.633, 220 442.518, 220 443.267 C 220 444.017, 217.758 446.851, 215.018 449.565 C 212.278 452.279, 209.372 456.149, 208.561 458.163 C 207.749 460.178, 206.200 462.447, 205.118 463.205 C 204.036 463.963, 202.393 466.477, 201.467 468.791 C 200.541 471.106, 199.465 473, 199.076 473 C 198.687 473, 197.308 474.913, 196.012 477.250 C 194.715 479.588, 193.053 481.862, 192.318 482.305 C 191.582 482.748, 190.327 484.675, 189.528 486.588 C 188.728 488.501, 186.691 491.230, 185.001 492.652 C 183.311 494.075, 181.302 496.422, 180.536 497.869 C 179.770 499.316, 175.943 503.875, 172.032 508 C 168.121 512.125, 164.317 516.888, 163.580 518.584 C 162.844 520.281, 161.061 522.848, 159.620 524.289 C 158.179 525.730, 157 527.847, 157 528.993 C 157 530.139, 155.200 532.951, 153 535.240 C 150.800 537.530, 149 539.701, 149 540.066 C 149 540.430, 146.468 543.377, 143.372 546.614 C 140.277 549.851, 136.868 554.300, 135.797 556.500 C 131.771 564.769, 131.105 565.654, 119.451 578.221 C 117.553 580.268, 116 582.605, 116 583.414 C 116 584.224, 113.589 587.499, 110.642 590.693 C 107.696 593.887, 104.546 597.940, 103.642 599.700 C 102.739 601.460, 101.390 603.260, 100.644 603.700 C 99.898 604.140, 98.497 606.188, 97.530 608.250 C 96.563 610.313, 95.383 612, 94.906 612 C 94.430 612, 93.178 613.688, 92.124 615.750 C 91.069 617.813, 88.859 620.907, 87.213 622.626 C 85.566 624.346, 83.629 627.383, 82.909 629.376 C 82.104 631.601, 80.944 633, 79.903 633 C 78.217 633, 72 639.261, 72 640.958 C 72 641.446, 70.747 643.118, 69.215 644.673 C 65.009 648.941, 61.930 653.670, 60.880 657.471 C 60.362 659.348, 58.152 663.941, 55.969 667.676 C 53.786 671.412, 52 674.935, 52 675.506 C 52 676.077, 50.717 678.109, 49.149 680.022 C 47.582 681.935, 45.762 685.140, 45.107 687.144 C 44.451 689.148, 42.808 692.073, 41.456 693.644 C 40.104 695.215, 38.298 698.075, 37.444 700 C 36.589 701.925, 34.859 705.525, 33.598 708 C 32.337 710.475, 31.012 713.703, 30.653 715.173 C 30.294 716.643, 28.947 719.118, 27.659 720.673 C 26.371 722.228, 25.061 724.400, 24.748 725.500 C 24.435 726.600, 22.749 731.325, 21.002 736 C 15.107 751.769, 14.795 753.492, 14.264 773.237 C 13.825 789.540, 13.982 792.443, 15.472 795.582 C 16.413 797.566, 16.951 800.077, 16.668 801.163 C 16.077 803.423, 17.195 807.233, 20.671 814.800 C 22.011 817.715, 23.370 822.332, 23.693 825.059 C 24.016 827.786, 25.118 830.982, 26.140 832.162 C 27.163 833.341, 28 834.916, 28 835.661 C 28 837.745, 42.564 851.737, 47.189 854.096 C 49.792 855.424, 52.300 855.990, 54.040 855.642 C 56.596 855.131, 56.775 855.313, 56.642 858.297 C 56.522 861.011, 56.881 861.547, 59 861.808 C 60.375 861.978, 63.787 863.212, 66.582 864.550 C 69.377 865.888, 72.977 867.191, 74.582 867.445 C 79.083 868.158, 134.230 869.165, 188.500 869.524 C 255.674 869.970, 271.376 870.603, 276.586 873.079 C 282.336 875.810, 283.403 878.391, 283.256 889.205 C 283.153 896.734, 282.770 898.820, 281.066 901.125 C 279.930 902.662, 279 905.085, 279 906.509 C 279 909.353, 276.428 915, 275.133 915 C 273.929 915, 272.001 922.144, 271.996 926.616 C 271.994 928.752, 271.094 931.973, 269.996 933.774 C 268.898 935.575, 268 938.236, 268 939.687 C 268 941.138, 266.556 944.575, 264.792 947.325 C 262.340 951.145, 261.407 953.971, 260.838 959.299 C 260.329 964.063, 259.472 966.942, 258.133 968.386 C 255.726 970.983, 255.447 972.448, 256.446 977.261 C 257.367 981.698, 256.111 983.736, 252.177 984.191 C 249.743 984.472, 249.493 984.898, 249.421 988.886 C 249.356 992.537, 248.814 993.710, 246.192 995.886 C 243.805 997.867, 242.648 1000.057, 241.417 1004.932 C 240.523 1008.469, 238.875 1012.603, 237.755 1014.118 C 236.241 1016.165, 235.864 1017.778, 236.289 1020.391 C 236.698 1022.912, 236.353 1024.559, 235.071 1026.204 C 232.435 1029.588, 230.337 1034.039, 229.511 1038 C 229.109 1039.925, 227.774 1042.850, 226.542 1044.500 C 225.311 1046.150, 223.757 1049.975, 223.089 1053 C 222.421 1056.025, 221.047 1060.300, 220.035 1062.500 C 219.023 1064.700, 217.299 1068.525, 216.204 1071 C 215.108 1073.475, 212.814 1078.600, 211.106 1082.388 C 209.398 1086.177, 208 1089.707, 208 1090.234 C 208 1090.760, 207.044 1092.533, 205.876 1094.174 C 204.708 1095.815, 203.335 1099.015, 202.824 1101.286 C 201.831 1105.706, 199.390 1111.553, 197.516 1114 C 196.884 1114.825, 195.117 1118.517, 193.590 1122.205 C 192.063 1125.893, 190.182 1129.434, 189.410 1130.075 C 188.638 1130.716, 187.123 1134.101, 186.042 1137.598 C 184.962 1141.095, 182.947 1146.429, 181.565 1149.452 C 180.183 1152.474, 178.749 1156.196, 178.380 1157.723 C 178.011 1159.251, 176.874 1161.694, 175.854 1163.154 C 174.834 1164.614, 174.007 1166.189, 174.015 1166.654 C 174.023 1167.119, 172.383 1170.875, 170.369 1175 C 168.355 1179.125, 166.379 1183.400, 165.977 1184.500 C 164.645 1188.143, 157.698 1202.491, 157.019 1203 C 156.653 1203.275, 155.486 1205.662, 154.426 1208.304 C 153.367 1210.946, 151.808 1213.871, 150.963 1214.804 C 148.491 1217.532, 146.831 1222.501, 147.178 1226.131 C 147.427 1228.737, 146.877 1230.115, 144.750 1232.216 C 142.803 1234.140, 142 1235.943, 142 1238.394 C 142 1240.832, 141.308 1242.399, 139.659 1243.696 C 136.488 1246.191, 135.332 1248.592, 134.458 1254.500 C 134.051 1257.250, 132.934 1260.507, 131.975 1261.738 C 131.015 1262.969, 129.926 1266.005, 129.555 1268.484 C 129.175 1271.018, 127.796 1274.277, 126.405 1275.931 C 125.044 1277.548, 123.270 1281.096, 122.462 1283.816 C 121.654 1286.535, 120.322 1289.318, 119.500 1290 C 118.678 1290.682, 117.343 1293.474, 116.531 1296.206 C 115.720 1298.937, 114.131 1302.670, 113 1304.500 C 111.869 1306.330, 110.237 1310.229, 109.374 1313.164 C 108.511 1316.099, 107.230 1319.175, 106.528 1320 C 105.825 1320.825, 104.655 1323.975, 103.928 1327 C 103.201 1330.025, 101.374 1334.300, 99.869 1336.500 C 98.364 1338.700, 96.649 1342.360, 96.059 1344.634 C 95.469 1346.907, 94.326 1349.315, 93.519 1349.984 C 92.713 1350.653, 91.780 1352.843, 91.447 1354.850 C 91.114 1356.858, 90.169 1360.279, 89.347 1362.453 C 87.397 1367.615, 88.276 1372.349, 91.453 1373.797 C 93.614 1374.781, 94.349 1374.448, 98.306 1370.700 C 100.744 1368.390, 104.175 1363.922, 105.930 1360.771 C 107.686 1357.621, 110.670 1353.191, 112.561 1350.927 C 114.452 1348.663, 116 1346.213, 116 1345.482 C 116 1344.751, 117.073 1342.878, 118.385 1341.319 C 121.421 1337.711, 124.440 1332.717, 127.043 1327 C 128.169 1324.525, 129.747 1321.999, 130.550 1321.386 C 131.353 1320.774, 132.396 1318.203, 132.869 1315.674 C 133.538 1312.090, 135.083 1309.546, 139.864 1304.153 C 143.239 1300.347, 146 1296.819, 146 1296.313 C 146 1295.287, 160.844 1277.688, 162.145 1277.171 C 162.601 1276.990, 164.351 1273.955, 166.036 1270.425 C 168.877 1264.472, 172.563 1259.407, 180.014 1251.219 C 181.656 1249.414, 183 1247.571, 183 1247.124 C 183 1246.676, 183.932 1245.467, 185.071 1244.436 C 186.210 1243.405, 188.190 1240.298, 189.472 1237.531 C 190.753 1234.764, 192.746 1231.934, 193.901 1231.242 C 195.069 1230.541, 196 1228.953, 196 1227.660 C 196 1226.203, 198.231 1222.944, 201.985 1218.919 C 205.277 1215.388, 208.537 1211.263, 209.230 1209.750 C 209.922 1208.237, 210.760 1207, 211.092 1207 C 211.424 1207, 212.528 1205.088, 213.544 1202.750 C 214.560 1200.412, 216.316 1197.150, 217.445 1195.500 C 220.518 1191.011, 229 1176.944, 229 1176.337 C 229 1176.046, 231.400 1172.139, 234.334 1167.654 C 237.268 1163.169, 240.915 1157.183, 242.438 1154.350 C 243.962 1151.518, 248.297 1146.118, 252.072 1142.350 C 255.846 1138.583, 258.952 1135.050, 258.973 1134.500 C 259.092 1131.408, 261.310 1126.115, 263.584 1123.500 C 265.019 1121.850, 267.054 1118.822, 268.106 1116.771 C 269.159 1114.719, 271.365 1112.345, 273.010 1111.495 C 274.654 1110.644, 276 1109.342, 276 1108.601 C 276 1107.859, 277.800 1105.284, 280 1102.877 C 282.649 1099.979, 284 1097.566, 284 1095.734 C 284 1093.823, 285.315 1091.629, 288.250 1088.644 C 293.498 1083.306, 293.853 1082.844, 299.661 1073.817 C 302.250 1069.793, 304.749 1066.345, 305.215 1066.156 C 305.680 1065.968, 307.180 1063.605, 308.547 1060.906 C 309.915 1058.208, 311.426 1056, 311.906 1056 C 312.385 1056, 313.064 1054.470, 313.415 1052.601 C 313.850 1050.281, 316.110 1047.051, 320.526 1042.434 C 324.615 1038.161, 327 1034.829, 327 1033.391 C 327 1032.138, 327.795 1030.525, 328.767 1029.807 C 329.739 1029.088, 331.373 1027.150, 332.397 1025.500 C 333.421 1023.850, 335.278 1021.375, 336.524 1020 C 337.770 1018.625, 339.098 1016.034, 339.476 1014.242 C 339.854 1012.450, 340.986 1010.543, 341.992 1010.004 C 342.998 1009.466, 344.857 1007.332, 346.123 1005.263 C 347.389 1003.193, 348.975 1000.935, 349.647 1000.244 C 350.319 999.553, 351.189 997.978, 351.580 996.744 C 351.971 995.510, 354.513 992.025, 357.228 989 C 359.944 985.975, 363.236 981.412, 364.544 978.861 C 365.852 976.309, 367.544 973.599, 368.305 972.837 C 369.729 971.413, 374.044 964.437, 376.253 959.987 C 376.939 958.604, 380.004 953.654, 383.065 948.987 C 386.125 944.319, 389.379 938.874, 390.296 936.888 C 391.213 934.901, 392.602 932.745, 393.383 932.097 C 394.165 931.448, 395.105 929.718, 395.473 928.251 C 395.841 926.785, 397.573 923.944, 399.321 921.939 C 404.855 915.592, 407.945 911.522, 411.473 905.932 C 413.358 902.944, 417.173 897.220, 419.951 893.211 C 423.571 887.985, 425 884.971, 425 882.559 C 425 879.688, 425.460 879.035, 428.137 878.102 C 433.201 876.337, 435.968 870.969, 432.500 869.638 C 429.467 868.474, 430.863 866.386, 434.399 866.798 C 437.474 867.157, 437.846 866.924, 438.302 864.348 C 439.902 855.297, 438.372 839, 435.922 839 C 435.415 839, 435 838.400, 435 837.667 C 435 836.934, 433.087 834.816, 430.750 832.959 C 428.413 831.103, 425.907 828.771, 425.183 827.777 C 424.459 826.784, 422.345 825.336, 420.487 824.559 C 418.628 823.782, 415.546 821.539, 413.637 819.573 C 411.728 817.608, 409.465 816, 408.608 816 C 407.750 816, 405.655 814.469, 403.953 812.598 C 402.131 810.596, 399.496 808.940, 397.550 808.575 C 395.732 808.234, 393.088 806.884, 391.675 805.574 C 390.262 804.265, 387.170 802.870, 384.803 802.475 C 382.436 802.080, 379.375 800.973, 378 800.017 C 376.625 799.060, 373.866 797.979, 371.870 797.616 C 369.873 797.252, 365.470 795.165, 362.086 792.977 C 358.702 790.790, 355.074 789, 354.025 789 C 352.976 789, 351.859 788.580, 351.542 788.067 C 351.225 787.554, 348.470 786.617, 345.420 785.983 C 342.370 785.350, 337.991 784.011, 335.688 783.008 C 333.384 782.004, 329.770 780.961, 327.656 780.689 C 325.400 780.399, 322.701 779.129, 321.120 777.615 C 319.639 776.196, 316.869 774.744, 314.964 774.388 C 313.059 774.031, 309.025 772.500, 306 770.985 C 302.975 769.469, 298.925 767.643, 297 766.926 C 293.600 765.660, 288.517 762.318, 284.562 758.750 C 283.496 757.788, 282.078 757, 281.413 757 C 279.663 757, 269.237 751.377, 266.105 748.744 C 264.637 747.510, 260.187 745.437, 256.218 744.138 C 252.248 742.838, 249 741.378, 249 740.893 C 249 740.407, 246.956 739.050, 244.459 737.876 C 241.661 736.561, 239.310 734.566, 238.335 732.680 C 236.407 728.953, 233.559 726.367, 229.250 724.432 C 225.495 722.747, 224.993 719.654, 227.500 713.654 C 228.325 711.680, 229 708.849, 229 707.363 C 229 705.877, 230.281 702.375, 231.846 699.581 C 233.411 696.786, 235.016 693.180, 235.411 691.567 C 235.806 689.954, 237.214 687.346, 238.539 685.772 C 239.863 684.197, 241.412 681.182, 241.981 679.071 C 242.549 676.960, 243.716 674.651, 244.573 673.939 C 246.968 671.951, 249 667.427, 249 664.080 C 249 661.880, 249.820 660.454, 252.019 658.828 C 253.680 657.600, 256.140 654.324, 257.486 651.548 C 258.832 648.771, 260.849 645.375, 261.968 644 C 263.088 642.625, 265.281 637.900, 266.843 633.500 C 268.405 629.100, 270.867 623.767, 272.315 621.649 C 273.762 619.532, 275.242 616.225, 275.603 614.302 C 276.098 611.664, 276.944 610.567, 279.047 609.834 C 281.399 609.014, 282.493 607.226, 286.034 598.416 C 288.343 592.670, 290.870 587.612, 291.650 587.176 C 292.430 586.740, 294.132 583.764, 295.433 580.563 C 296.734 577.361, 298.191 574.463, 298.670 574.121 C 299.924 573.227, 302 568.220, 302 566.090 C 302 565.092, 303.350 562.576, 305 560.500 C 307.270 557.644, 308 555.691, 308 552.479 C 308 549.078, 308.397 548.129, 309.995 547.712 C 311.092 547.425, 312.297 546.360, 312.672 545.345 C 313.047 544.330, 314.341 541.913, 315.548 539.973 C 317.926 536.153, 319.322 531.106, 319.207 526.750 C 319.167 525.237, 319.543 524, 320.044 524 C 321.939 524, 324.277 518.755, 324.386 514.257 C 324.496 509.738, 324.623 509.549, 328.111 508.723 C 331.266 507.975, 332.039 507.150, 334.235 502.184 C 335.617 499.058, 337.089 495.375, 337.507 494 C 337.924 492.625, 339.781 489.811, 341.633 487.747 C 343.485 485.683, 345 483.627, 345 483.179 C 345 482.730, 346.561 480.609, 348.468 478.465 C 350.376 476.321, 352.205 473.345, 352.532 471.852 C 352.860 470.360, 353.741 468.630, 354.490 468.009 C 356.377 466.443, 364.605 449.414, 365.950 444.292 C 366.557 441.978, 367.458 439.835, 367.951 439.530 C 368.444 439.226, 369.619 436.619, 370.563 433.738 C 371.506 430.857, 373.566 425.925, 375.139 422.779 C 376.713 419.632, 378 416.308, 378 415.393 C 378 414.478, 379.107 412.704, 380.460 411.450 C 381.812 410.196, 383.193 407.895, 383.528 406.335 C 383.863 404.776, 384.998 401.667, 386.051 399.426 C 387.103 397.185, 388.626 393.477, 389.435 391.185 C 390.243 388.894, 391.844 386.011, 392.991 384.779 C 394.139 383.548, 395.348 381.406, 395.680 380.020 C 396.011 378.634, 397.545 375.025, 399.088 372 C 400.632 368.975, 403.303 363.350, 405.025 359.500 C 406.747 355.650, 409.842 350.250, 411.903 347.500 C 413.964 344.750, 417.179 339.350, 419.048 335.500 C 420.918 331.650, 423.245 327.573, 424.219 326.440 C 425.264 325.226, 426.251 321.893, 426.625 318.318 C 427.167 313.131, 427.518 312.323, 429.055 312.725 C 430.440 313.087, 431.430 311.932, 433.370 307.691 C 434.754 304.664, 436.330 301.914, 436.871 301.580 C 437.411 301.246, 438.368 299.291, 438.995 297.236 C 440.200 293.291, 448.052 276.852, 449.138 276 C 450.208 275.160, 453 267.872, 453 265.917 C 453 264.905, 453.808 263.273, 454.796 262.289 C 457.521 259.573, 459.017 255.337, 458.379 252.143 C 457.903 249.763, 458.317 248.910, 460.818 247.130 C 463.327 245.343, 464.449 243.022, 467.529 233.242 C 469.564 226.784, 472.077 220.571, 473.114 219.436 C 474.151 218.300, 475 216.164, 475 214.688 C 475 213.058, 476.315 210.534, 478.353 208.253 C 480.583 205.757, 481.934 203.033, 482.386 200.121 C 482.846 197.154, 483.997 194.871, 485.955 193.042 C 487.724 191.389, 489.117 188.821, 489.546 186.421 C 489.932 184.264, 490.999 181.600, 491.919 180.500 C 492.839 179.400, 494.224 177.150, 494.998 175.500 C 495.772 173.850, 497.384 171.375, 498.581 170 C 499.778 168.625, 501.044 165.884, 501.394 163.910 C 501.744 161.935, 503.149 159.269, 504.515 157.986 C 505.882 156.702, 507 154.846, 507 153.861 C 507 150.984, 510.086 142.707, 512.124 140.115 C 513.156 138.803, 514 136.442, 514 134.867 C 514 132.987, 515.162 130.772, 517.386 128.415 C 519.527 126.145, 521.001 123.397, 521.393 120.944 C 521.745 118.743, 522.780 116.653, 523.783 116.116 C 525.403 115.249, 527.812 111.279, 533.261 100.500 C 534.373 98.300, 536.083 95.937, 537.062 95.249 C 538.041 94.561, 539.130 92.536, 539.483 90.749 C 540.369 86.263, 542.089 82, 543.013 82 C 544.169 82, 547 74.350, 547 71.227 C 547 69.486, 548.089 67.466, 550 65.662 C 551.934 63.837, 553 61.843, 553 60.053 C 553 58.486, 554.278 55.666, 555.932 53.586 C 557.544 51.557, 559.170 48.457, 559.543 46.698 C 559.917 44.939, 560.884 42.749, 561.693 41.831 C 562.501 40.913, 563.649 36.863, 564.243 32.831 C 564.895 28.406, 566.052 24.682, 567.161 23.436 C 569.949 20.305, 569.513 16.734, 566.096 14.716 C 562.512 12.599, 562.984 12.560, 559.624 15.250 M 492.479 433.802 C 491.647 440.021, 491.204 441.244, 490.044 440.527 C 488.607 439.639, 485 443.665, 485 446.156 C 485 447.341, 483.927 449.717, 482.616 451.436 C 481.305 453.155, 479.696 457.149, 479.039 460.313 C 478.333 463.715, 476.921 466.988, 475.583 468.326 C 474.289 469.621, 473.020 472.493, 472.617 475.044 C 472.229 477.495, 470.887 481.075, 469.633 483 C 468.380 484.925, 466.555 488.971, 465.578 491.991 C 464.601 495.011, 462.721 499.326, 461.401 501.579 C 460.080 503.832, 458.992 506.536, 458.983 507.588 C 458.974 508.640, 457.631 511.750, 456 514.500 C 454.369 517.250, 453.026 520.071, 453.017 520.770 C 453.008 521.468, 451.965 523.718, 450.700 525.770 C 449.434 527.821, 447.786 531.525, 447.036 534 C 446.286 536.475, 444.444 540.750, 442.942 543.500 C 441.440 546.250, 439.885 550.045, 439.486 551.932 C 439.087 553.820, 437.919 556.864, 436.890 558.695 C 435.861 560.527, 434.727 563.933, 434.369 566.263 C 434.011 568.593, 432.838 572.256, 431.761 574.403 C 430.684 576.549, 429.220 579.924, 428.507 581.903 C 426.310 587.997, 414.286 613.567, 412.473 616 C 411.858 616.825, 410.786 619.525, 410.090 622 C 409.394 624.475, 407.739 628.872, 406.412 631.772 C 405.086 634.672, 404 637.737, 404 638.584 C 404 639.431, 402.381 643.444, 400.402 647.502 C 397.301 653.862, 396.900 655.476, 397.499 659.190 C 398.802 667.270, 401.128 672.795, 404.529 675.890 C 408.914 679.880, 440.639 695, 444.626 695 C 446.524 695, 463.509 701.483, 468 703.921 C 469.925 704.967, 473.750 706.140, 476.500 706.528 C 479.250 706.916, 484.875 708.502, 489 710.051 C 496.165 712.743, 500.440 714.214, 515 719.001 C 518.575 720.176, 523.554 722.211, 526.064 723.522 C 528.574 724.834, 532.399 726.335, 534.564 726.858 C 536.729 727.381, 541.200 728.733, 544.500 729.862 C 547.800 730.991, 552.525 732.464, 555 733.134 C 557.475 733.805, 561.975 735.622, 565 737.172 C 573.967 741.768, 581.908 744.999, 584.280 745.016 C 585.501 745.026, 589.748 745.821, 593.717 746.784 C 599.702 748.236, 601.410 749.127, 603.717 751.999 C 605.248 753.903, 607.962 756.791, 609.750 758.415 C 612.273 760.707, 613 762.177, 613 764.984 C 613 766.973, 612.605 769.027, 612.123 769.550 C 611.641 770.072, 610.446 772.975, 609.469 776 C 608.492 779.025, 606.458 783.975, 604.948 787 C 603.439 790.025, 601.907 793.916, 601.545 795.646 C 601.183 797.377, 599.961 799.627, 598.830 800.646 C 596.572 802.682, 595.308 805.051, 582.908 830.500 C 579.668 837.151, 576.238 842.410, 572.669 846.203 C 568.861 850.250, 566.649 853.734, 565.053 858.203 C 563.816 861.666, 561.775 866.075, 560.518 868 C 559.260 869.925, 556.610 874.087, 554.628 877.250 C 552.646 880.412, 550.621 883, 550.126 883 C 549.632 883, 548.435 884.687, 547.465 886.750 C 546.496 888.813, 543.795 893.200, 541.463 896.500 C 539.130 899.800, 534.926 906.402, 532.120 911.170 C 529.313 915.939, 526.387 920.470, 525.616 921.241 C 524.846 922.012, 523.027 924.988, 521.574 927.854 C 518.267 934.380, 512.364 943.657, 510.971 944.518 C 509.651 945.334, 506.116 950.912, 501.350 959.701 C 499.322 963.441, 496.387 968.750, 494.828 971.500 C 493.269 974.250, 490.864 978.887, 489.485 981.805 C 488.106 984.722, 486.539 987.647, 486.004 988.305 C 485.469 988.962, 482.916 992.650, 480.332 996.500 C 475.751 1003.323, 472.944 1007.318, 466.982 1015.500 C 465.378 1017.700, 464.051 1020.063, 464.033 1020.750 C 464.015 1021.438, 463.550 1022, 463 1022 C 462.450 1022, 462 1022.502, 462 1023.116 C 462 1023.729, 459.975 1027.277, 457.500 1031 C 455.025 1034.723, 453 1038.059, 453 1038.414 C 453 1038.769, 451.160 1041.387, 448.910 1044.233 C 446.661 1047.079, 443.324 1052.379, 441.494 1056.011 C 439.665 1059.643, 437.426 1063.231, 436.518 1063.985 C 435.611 1064.738, 434.235 1066.579, 433.461 1068.075 C 432.687 1069.572, 429.626 1074.024, 426.658 1077.969 C 423.690 1081.914, 420.641 1086.341, 419.881 1087.806 C 419.121 1089.271, 416.563 1093.385, 414.196 1096.948 C 411.828 1100.512, 409.218 1104.845, 408.396 1106.579 C 407.573 1108.312, 406.064 1110.627, 405.042 1111.724 C 404.020 1112.821, 402.249 1115.551, 401.106 1117.792 C 399.964 1120.032, 398.597 1122.131, 398.070 1122.457 C 397.543 1122.783, 395.241 1126.751, 392.955 1131.275 C 390.669 1135.799, 386.613 1142.747, 383.942 1146.716 C 381.272 1150.685, 378.402 1155.255, 377.567 1156.871 C 376.731 1158.488, 375.406 1160.452, 374.622 1161.235 C 373.839 1162.018, 371.653 1165.774, 369.766 1169.580 C 367.878 1173.386, 365.291 1178.525, 364.016 1181 C 360.432 1187.960, 359.025 1194.659, 359.012 1204.829 C 359.002 1212.304, 359.476 1215.386, 361.393 1220.329 C 362.710 1223.723, 364.457 1228.563, 365.276 1231.085 C 367.007 1236.411, 373.348 1245.657, 375.809 1246.443 C 376.739 1246.740, 380.638 1250.606, 384.473 1255.034 C 399.348 1272.207, 417.296 1277.304, 444.502 1272.080 C 455.731 1269.925, 457.448 1269.393, 461 1266.968 C 462.375 1266.030, 464.625 1264.927, 466 1264.516 C 467.375 1264.106, 469.400 1262.986, 470.500 1262.027 C 471.600 1261.069, 474.863 1259.024, 477.750 1257.483 C 480.637 1255.943, 483 1254.297, 483 1253.826 C 483 1253.356, 484.350 1252.150, 485.999 1251.147 C 490.744 1248.261, 498.878 1240.248, 503 1234.398 C 503.825 1233.227, 505.781 1230.348, 507.347 1228 C 508.913 1225.652, 511.039 1222.779, 512.070 1221.616 C 516.683 1216.412, 520.742 1211.418, 521.106 1210.500 C 521.324 1209.950, 524.072 1205.633, 527.212 1200.907 C 530.352 1196.181, 534.598 1189.014, 536.647 1184.981 C 540.031 1178.320, 545.486 1169.335, 547.982 1166.312 C 548.522 1165.659, 551.239 1161.384, 554.022 1156.812 C 556.804 1152.240, 560.351 1146.736, 561.903 1144.581 C 563.456 1142.426, 565.540 1138.376, 566.533 1135.581 C 567.527 1132.786, 569.490 1128.700, 570.895 1126.500 C 572.299 1124.300, 573.959 1121.600, 574.583 1120.500 C 575.206 1119.400, 577.589 1115.575, 579.878 1112 C 582.167 1108.425, 584.726 1104.002, 585.566 1102.171 C 586.406 1100.340, 589.322 1095.777, 592.047 1092.031 C 594.771 1088.285, 597 1084.955, 597 1084.630 C 597 1084.305, 598.554 1081.610, 600.452 1078.642 C 602.351 1075.674, 605.429 1070.152, 607.292 1066.373 C 613.928 1052.912, 623.783 1034.947, 625.051 1034 C 626.211 1033.134, 629 1027.168, 629 1025.552 C 629 1024.701, 630.575 1022.335, 632.500 1020.294 C 634.425 1018.253, 636 1015.839, 636 1014.929 C 636 1014.019, 637.350 1011.576, 639 1009.500 C 640.650 1007.424, 642 1005.269, 642 1004.712 C 642 1003.064, 647.348 992.687, 649.320 990.510 C 650.321 989.404, 652.754 985.800, 654.725 982.500 C 656.697 979.200, 659.147 975.564, 660.170 974.420 C 661.193 973.276, 663.393 968.430, 665.060 963.650 C 668.226 954.573, 670.962 949.255, 674.438 945.425 C 675.572 944.176, 677.849 940.532, 679.499 937.327 C 681.148 934.122, 684.185 928.642, 686.249 925.148 C 688.312 921.654, 690 918.539, 690 918.225 C 690 917.472, 700.276 896.645, 700.965 896 C 701.259 895.725, 702.623 893.250, 703.996 890.500 C 705.369 887.750, 709.948 879.768, 714.171 872.762 C 719.296 864.262, 722.273 858.138, 723.120 854.354 C 723.818 851.235, 725.427 847.564, 726.695 846.196 C 727.963 844.827, 729 843.210, 729 842.601 C 729 841.992, 730.523 839.352, 732.384 836.734 C 734.245 834.116, 736.318 830.518, 736.990 828.737 C 738.268 825.351, 746.692 807.386, 750.231 800.500 C 751.361 798.300, 752.961 795.150, 753.786 793.500 C 754.611 791.850, 756.045 789.600, 756.973 788.500 C 758.861 786.262, 764 774.594, 764 772.547 C 764 770.377, 772.957 742.822, 775.067 738.500 C 776.141 736.300, 777.710 729.550, 778.553 723.500 C 779.396 717.450, 780.562 711.005, 781.145 709.177 C 782.673 704.379, 782.529 698.045, 780.596 685 C 779.658 678.675, 778.490 670.555, 777.999 666.955 C 776.934 659.145, 771.227 645.111, 766.955 639.794 C 765.269 637.696, 763.258 634.469, 762.487 632.622 C 760.083 626.869, 756.767 622.621, 750.661 617.469 C 743.515 611.441, 740.589 608.661, 738.833 606.232 C 737.442 604.308, 721.064 594.275, 715 591.632 C 709.220 589.113, 692.845 584.303, 687.500 583.554 C 684.750 583.169, 680.700 582.262, 678.500 581.539 C 675.408 580.524, 666.437 580.308, 639 580.591 C 619.475 580.791, 598.100 581.168, 591.500 581.428 C 584.900 581.688, 572.750 582.158, 564.500 582.472 C 556.250 582.786, 546.800 583.536, 543.500 584.138 C 534.265 585.822, 513.197 585.784, 509 584.075 C 503.260 581.739, 500.081 579.073, 497.780 574.666 C 495.616 570.522, 495.604 570.175, 495.552 508.356 C 495.502 448.075, 495.441 446.147, 493.540 444.045 C 492.244 442.612, 491.947 441.644, 492.664 441.189 C 493.261 440.810, 494.064 438.925, 494.449 437 C 494.834 435.075, 495.354 432.766, 495.604 431.868 C 495.855 430.971, 495.395 429.982, 494.583 429.670 C 493.457 429.238, 492.958 430.216, 492.479 433.802" stroke="none" fill="#0B1623" fill-rule="evenodd"/>
</svg>